<?xml version="1.0" encoding="UTF-8"?>
<svg version="1.1" xmlns="http://www.w3.org/2000/svg" width="83" height="83">
<path d="M0 0 C27.39 0 54.78 0 83 0 C83 27.39 83 54.78 83 83 C55.61 83 28.22 83 0 83 C0 55.61 0 28.22 0 0 Z " fill="#F6F6F7" transform="translate(0,0)"/>
<path d="M0 0 C3.34455651 3.3729805 3.19933431 4.45288444 3.34375 9.078125 C3.30388289 11.56317502 3.23235171 14.04787429 3.1328125 16.53125 C3.09220703 18.43583984 3.09220703 18.43583984 3.05078125 20.37890625 C2.9800484 23.51472906 2.88137742 26.64713663 2.7578125 29.78125 C0.8203125 28.96875 0.8203125 28.96875 -1.2421875 27.78125 C-1.7371875 26.29625 -1.7371875 26.29625 -2.2421875 24.78125 C-6.40871013 28.18703114 -9.88467259 31.55326826 -13.2421875 35.78125 C-13.9021875 35.78125 -14.5621875 35.78125 -15.2421875 35.78125 C-15.5309375 36.35875 -15.8196875 36.93625 -16.1171875 37.53125 C-17.2421875 39.78125 -17.2421875 39.78125 -18.4921875 41.78125 C-19.52417234 43.81987341 -19.52417234 43.81987341 -18.2890625 45.90625 C-17.94359375 46.525 -17.598125 47.14375 -17.2421875 47.78125 C-24.59858404 47.53966062 -30.20960366 47.20514482 -36.2421875 42.78125 C-38.72235691 37.82091118 -37.55505644 30.13365111 -37.59228516 24.61474609 C-37.608855 22.81253149 -37.6361588 21.01038289 -37.67431641 19.20849609 C-37.72905656 16.61000493 -37.75095209 14.01305238 -37.765625 11.4140625 C-37.78829437 10.60977814 -37.81096375 9.80549377 -37.83432007 8.97683716 C-37.81929408 5.00142904 -37.65772837 3.21425557 -34.85473633 0.29345703 C-24.5109257 -5.69379304 -10.71118132 -4.02637177 0 0 Z " fill="#FDE367" transform="translate(49.2421875,6.21875)"/>
<path d="M0 0 C-0.125 2.3125 -0.125 2.3125 -1 5 C-9.85253626 10.55856928 -19.8389828 11.25923946 -30 10 C-33.51390296 8.919486 -36.47430084 7.72050042 -39 5 C-39.71875 2.32421875 -39.71875 2.32421875 -40 0 C-30.22350759 -9.77649241 -10.33203943 -7.94772264 0 0 Z " fill="#F1AD55" transform="translate(52,9)"/>
<path d="M0 0 C0.99 0.33 1.98 0.66 3 1 C2.67 2.32 2.34 3.64 2 5 C1.34 5 0.68 5 0 5 C1.31445687 10.98808129 4.61191026 14.03429323 9 18 C11.46800047 16.84826645 13.04783565 15.95216435 15 14 C15.54317095 11.44795872 15.88904341 8.89721422 16.2421875 6.3125 C17 4 17 4 18.8828125 2.625 C21 2 21 2 24 3 C23.34 3.66 22.68 4.32 22 5 C22.3185177 7.10820797 22.3185177 7.10820797 23 9 C25.60582371 9.93065133 26.64198224 10.14917407 29.25 9.0625 C29.8275 8.711875 30.405 8.36125 31 8 C30.63075651 10.58470444 29.96729184 12.04579142 28.4375 14.1875 C25.46079513 16.40094721 23.50879252 16.39021845 19.90625 16.65234375 C17.0468301 17.17383631 15.72986031 18.7655971 14 21 C15.47721422 24.45201639 17.43794001 26.64961936 20.125 29.25 C20.84945312 29.95640625 21.57390625 30.6628125 22.3203125 31.390625 C23.15175781 32.18726563 23.15175781 32.18726563 24 33 C23.67 33.99 23.34 34.98 23 36 C19.54798361 34.52278578 17.35038064 32.56205999 14.75 29.875 C14.04359375 29.15054688 13.3371875 28.42609375 12.609375 27.6796875 C12.07828125 27.12539063 11.5471875 26.57109375 11 26 C7.55571735 27.44781793 5.63869038 29.27694609 3.25 32.125 C2.63640625 32.84945312 2.0228125 33.57390625 1.390625 34.3203125 C0.70226562 35.15175781 0.70226562 35.15175781 0 36 C-1.32 35.67 -2.64 35.34 -4 35 C-2.52278578 31.54798361 -0.56205999 29.35038064 2.125 26.75 C2.84945312 26.04359375 3.57390625 25.3371875 4.3203125 24.609375 C4.87460937 24.07828125 5.42890625 23.5471875 6 23 C4.25399339 19.22637281 2.10159421 16.79899966 -1 14 C-1.99 13.67 -2.98 13.34 -4 13 C-4.103125 13.639375 -4.20625 14.27875 -4.3125 14.9375 C-4.539375 15.618125 -4.76625 16.29875 -5 17 C-5.99 17.33 -6.98 17.66 -8 18 C-9.32 16.68 -10.64 15.36 -12 14 C-11.67 13.01 -11.34 12.02 -11 11 C-9.68 11 -8.36 11 -7 11 C-6.95875 10.29875 -6.9175 9.5975 -6.875 8.875 C-5.61066601 4.72075973 -3.18471218 2.91367285 0 0 Z " fill="#B46CD0" transform="translate(45,36)"/>
<path d="M0 0 C0 7.59 0 15.18 0 23 C-4 21 -4 21 -5 18 C-9.16652263 21.40578114 -12.64248509 24.77201826 -16 29 C-16.66 29 -17.32 29 -18 29 C-18 29.66 -18 30.32 -18 31 C-18.66 31 -19.32 31 -20 31 C-20 22.75 -20 14.5 -20 6 C-16.535 5.505 -16.535 5.505 -13 5 C-11.40229876 4.57116915 -9.81514763 4.0980913 -8.25 3.5625 C-7.51265625 3.31628906 -6.7753125 3.07007813 -6.015625 2.81640625 C-3.96029092 1.98391628 -2.16645008 0 0 0 Z " fill="#FCD106" transform="translate(52,13)"/>
<path d="M0 0 C1.98 0 3.96 0 6 0 C6 4.29 6 8.58 6 13 C10.29 13 14.58 13 19 13 C19 14.98 19 16.96 19 19 C12.73 19 6.46 19 0 19 C0 12.73 0 6.46 0 0 Z " fill="#4DA14C" transform="translate(6,57)"/>
<path d="M0 0 C6.27 0 12.54 0 19 0 C19 6.27 19 12.54 19 19 C17.02 19 15.04 19 13 19 C13 14.71 13 10.42 13 6 C8.71 6 4.42 6 0 6 C0 4.02 0 2.04 0 0 Z " fill="#4DA14C" transform="translate(59,4)"/>
<path d="M0 0 C0.33 0 0.66 0 1 0 C1.0246985 3.95099928 1.04285923 7.90196874 1.05493164 11.85302734 C1.06244036 13.85906551 1.0751447 15.86508202 1.08789062 17.87109375 C1.09272461 19.75634766 1.09272461 19.75634766 1.09765625 21.6796875 C1.10551147 23.42354736 1.10551147 23.42354736 1.11352539 25.20263672 C1 28 1 28 0 30 C-0.0689472 31.37342831 -0.08467708 32.75002102 -0.0625 34.125 C-0.041875 35.40375 -0.02125 36.6825 0 38 C-3.875 36.25 -3.875 36.25 -5 34 C-5.66 34.99 -6.32 35.98 -7 37 C-7 35.35 -7 33.7 -7 32 C-6.34 31.67 -5.68 31.34 -5 31 C-5 30.01 -5 29.02 -5 28 C-8.3734229 29.44575267 -10.61595146 31.2049086 -13 34 C-13.7872678 36.1381966 -13.7872678 36.1381966 -14 38 C-15.11375 38.309375 -16.2275 38.61875 -17.375 38.9375 C-20.7945155 39.82326483 -20.7945155 39.82326483 -23 41 C-21.43528652 37.15933963 -18.93965873 34.86966685 -16 32 C-15.01 30.7625 -15.01 30.7625 -14 29.5 C-11.82768896 26.7846112 -9.55776223 24.35583364 -7 22 C-6.34 22 -5.68 22 -5 22 C-3.35 23.65 -1.7 25.3 0 27 C0 18.09 0 9.18 0 0 Z " fill="#F7F4E8" transform="translate(52,9)"/>
<path d="M0 0 C2.64 0 5.28 0 8 0 C8 0.33 8 0.66 8 1 C6.02 1 4.04 1 2 1 C2 7.27 2 13.54 2 20 C8.27 20 14.54 20 21 20 C21 18.02 21 16.04 21 14 C21.33 14 21.66 14 22 14 C22 16.64 22 19.28 22 22 C18.52085059 22.02887814 15.04173169 22.04675687 11.5625 22.0625 C10.07266602 22.07506836 10.07266602 22.07506836 8.55273438 22.08789062 C7.60849609 22.09111328 6.66425781 22.09433594 5.69140625 22.09765625 C4.37958374 22.10551147 4.37958374 22.10551147 3.04125977 22.11352539 C1 22 1 22 0 21 C-0.08685603 19.43827255 -0.10702219 17.87270656 -0.09765625 16.30859375 C-0.09443359 15.36435547 -0.09121094 14.42011719 -0.08789062 13.44726562 C-0.07951172 12.45404297 -0.07113281 11.46082031 -0.0625 10.4375 C-0.05798828 9.44041016 -0.05347656 8.44332031 -0.04882812 7.41601562 C-0.03700007 4.94395151 -0.02051849 2.47200482 0 0 Z " fill="#BEDABD" transform="translate(4,56)"/>
<path d="M0 0 C3.47914941 -0.02887814 6.95826831 -0.04675687 10.4375 -0.0625 C11.92733398 -0.07506836 11.92733398 -0.07506836 13.44726562 -0.08789062 C14.39150391 -0.09111328 15.33574219 -0.09433594 16.30859375 -0.09765625 C17.62041626 -0.10551147 17.62041626 -0.10551147 18.95874023 -0.11352539 C21 0 21 0 22 1 C22.08685603 2.56172745 22.10702219 4.12729344 22.09765625 5.69140625 C22.09443359 6.63564453 22.09121094 7.57988281 22.08789062 8.55273438 C22.07951172 9.54595703 22.07113281 10.53917969 22.0625 11.5625 C22.05798828 12.55958984 22.05347656 13.55667969 22.04882812 14.58398438 C22.03700007 17.05604849 22.02051849 19.52799518 22 22 C19.36 22 16.72 22 14 22 C14 21.67 14 21.34 14 21 C15.98 21 17.96 21 20 21 C20 14.73 20 8.46 20 2 C13.73 2 7.46 2 1 2 C1 3.98 1 5.96 1 8 C0.67 8 0.34 8 0 8 C0 5.36 0 2.72 0 0 Z " fill="#BDDABD" transform="translate(58,2)"/>
<path d="M0 0 C0.66 0.33 1.32 0.66 2 1 C1.23439544 2.2739902 0.46227374 3.54406512 -0.3125 4.8125 C-0.74175781 5.52019531 -1.17101563 6.22789063 -1.61328125 6.95703125 C-2.92655613 8.89179959 -4.35462434 10.35462434 -6 12 C-6.71447643 14.10332891 -6.71447643 14.10332891 -7 16 C-8.670625 16.4640625 -8.670625 16.4640625 -10.375 16.9375 C-13.7945155 17.82326483 -13.7945155 17.82326483 -16 19 C-14.43528652 15.15933963 -11.93965873 12.86966685 -9 10 C-8.34 9.175 -7.68 8.35 -7 7.5 C-4.83775131 4.79718914 -2.47992807 2.41104118 0 0 Z " fill="#F5EEE0" transform="translate(45,31)"/>
<path d="M0 0 C0.99 0 1.98 0 3 0 C4.60725635 3.21451269 4.05748185 6.43612536 4 10 C0.125 8.25 0.125 8.25 -1 6 C-1.66 6.99 -2.32 7.98 -3 9 C-3 7.35 -3 5.7 -3 4 C-2.34 3.67 -1.68 3.34 -1 3 C-0.67 2.01 -0.34 1.02 0 0 Z " fill="#F0E6EC" transform="translate(48,37)"/>
<path d="M0 0 C0.99 0.66 1.98 1.32 3 2 C3 2.66 3 3.32 3 4 C-0.96 3.67 -4.92 3.34 -9 3 C-9 2.67 -9 2.34 -9 2 C-6.03 2 -3.06 2 0 2 C0 1.34 0 0.68 0 0 Z " fill="#FBEB9A" transform="translate(29,50)"/>
<path d="M0 0 C0.99 0.33 1.98 0.66 3 1 C2.67 2.32 2.34 3.64 2 5 C1.67 4.34 1.34 3.68 1 3 C-0.32 3.99 -1.64 4.98 -3 6 C-3.66 5.67 -4.32 5.34 -5 5 C-3.35 3.35 -1.7 1.7 0 0 Z " fill="#BF84D7" transform="translate(45,36)"/>
<path d="M0 0 C0.66 0 1.32 0 2 0 C1.67 1.32 1.34 2.64 1 4 C-3.75 5.125 -3.75 5.125 -6 4 C-5.67 3.34 -5.34 2.68 -5 2 C-3.67696283 1.6278958 -2.34262065 1.29369827 -1 1 C-0.67 0.67 -0.34 0.34 0 0 Z " fill="#BC7CD6" transform="translate(74,44)"/>
<path d="M0 0 C-1.32 1.65 -2.64 3.3 -4 5 C-4.33 4.34 -4.66 3.68 -5 3 C-5.66 3 -6.32 3 -7 3 C-6.67 2.01 -6.34 1.02 -6 0 C-3 -1 -3 -1 0 0 Z " fill="#B570D1" transform="translate(69,39)"/>
<path d="M0 0 C0.33 0 0.66 0 1 0 C1 1.98 1 3.96 1 6 C-0.32 5.67 -1.64 5.34 -3 5 C-1.125 1.125 -1.125 1.125 0 0 Z " fill="#BB7BD5" transform="translate(44,66)"/>
<path d="M0 0 C0.33 0 0.66 0 1 0 C1 2.31 1 4.62 1 7 C-0.32 6.34 -1.64 5.68 -3 5 C-1.125 1.125 -1.125 1.125 0 0 Z " fill="#FCDC31" transform="translate(51,40)"/>
</svg>
